# xmcd
#
# Track frame offsets: 
#        150
#        15115
#        32187
#        50012
#        70980
#        86520
#        105115
#        121087
#        139575
#        153372
#
# Disc length: 2290 seconds
#
# Revision: 1
# Processed by: cddbd v1.5.2PL0 Copyright (c) Steve Scherf et al.
# Submitted via: ExactAudioCopy v0.99pb4
#
DISCID=6f08f00a
DTITLE=Mose Allison - Down Home Piano
DYEAR=1957
DGENRE=Jazz
TTITLE0=Dinner On The Ground
TTITLE1=Crepuscular Air
TTITLE2=Mule
TTITLE3=Creek Bank
TTITLE4=Town
TTITLE5=Devil In The Cane Field
TTITLE6=The Minstrels
TTITLE7=Moon And Cypress
TTITLE8=Carnival
TTITLE9=Mojo Woman
EXTD=
EXTT0=
EXTT1=
EXTT2=
EXTT3=
EXTT4=
EXTT5=
EXTT6=
EXTT7=
EXTT8=
EXTT9=
PLAYORDER=
